<?xml version="1.0" encoding="UTF-8"?><svg id="Cow" xmlns="http://www.w3.org/2000/svg" width="76.27" height="55.54" viewBox="0 0 76.27 55.54"><defs><style>.cls-1{fill:none;stroke:#000;stroke-linecap:round;stroke-linejoin:round;stroke-width:.25px;}</style></defs><path d="M49.87,34.61c-2.07,3.52,1.1,3.79-1.22,8.77-3.01,6.47.09,4.42-4.44,8.95-.95.95-2.5.48-3.55-.15.34-.7.79-1.45,1.35-1.98,5.37-5.11.95-11.7,1.06-11.75l-1.06.45c-.15-.49-.63-1.88-1.23-2.01-1.9-.4-3.76.44-5.63.54-1.2.06-2.65-.78-3.85-1.01-1.37-.27-2.4.36-2.79,1.73-.89,3.14-2.21,6.29-2.66,9.57-.32,2.32.73,4.64-.82,6.75-.78,1.06-2.99,1.37-4.16.73,4.98-10.39-.17-8.29,1.88-14,.43-1.2.78-2.64-.16-4.03-1.08,1.71-4.69,1.26-5.45,2.68-.86,1.61-.85,4.73-1.19,6.71-.4,2.37.82,4.64-.95,6.72-.91,1.07-2.93,1.31-3.95.04,2.38-3.07,2.42-6.14,1.89-9.47-1.46-9.12-2.9-9.17-4.42-18.24-.18-1.04.55-2.7-.33-3.42-1.21-.98-2.06-1.73-1.95-3.39.17-2.51.1-5.13-.45-7.64-2.95,0-4.96-1.42-5.8-4.11,1.6-.45,3.16-.57,4.61-.22l-.61.31c-.12.06-.14.13-.02.16.12.03.53.08.65.04l.74-.25C7.39,6.43-1.4,5.94.31,0c1.74,3.16,4.38,5.04,7.9,3.53,6.98-2.99,10.92,5.63,16.5-2.38.51,2.84-1.62,4.44-4.1,5.56,8.63,2.15,17.63,2.76,26.56,1.49,2.6-.37,5.25-.35,7.95-.48.83.72,1.05,2.26,1.79,2.8,7.11,5.15,3.34,10.42,7.28,15.04.93,1.09,2.34,1.69,3.59,1.77s3.17-.35,3.59-1.89c.31-1.13-.36-2.55-.29-3.85,1.19-1.17,2.26-2.16,3.57-3.14-.36,1.39-3.47,2.27-3.03,4.01l1.02-.9c.21-.19.62-.03.92.03.1.02.02-.79.04-.9.01-.1.15-.11.25-.06l.65.34c.39-1.18.67-2.36,1.4-3.68-.04,1.02-.34,1.82-.46,2.77-.48,3.87-3.7,8.88-7.54,8.71-4.2-.19-6.59-3.51-7.48-7.68-.6,2.5-1.07,4.98-1.49,7.43-.7,4.12-.26,7.86-.36,11.87-.08,3.3-1.61,6.44-1.52,9.88.03.94-.96,2.69-1.33,3.66-.56,1.46-3.3,1.45-4.17.39,5.01-8.74,2.24-10.93-1.66-19.7ZM12.24,17.98l.1,1.47c.02.34-1.06-.03-1.43.08-.06.74,2.61,2.33,2.92,1.43.55-1.6.91-3.45,1.89-4.78.31-.42,1.55-5.65.03-3.8l-.52.63c-.3.36-1.21.14-1.43-.35-.2-.44.04-1.13.4-1.6.29-.38,1-.3,1.5-.02l.44.25c.08.05.22-.28.13-.31l-.47-.15c-.14-.05-.42-.29-.52-.4-.28-.27.82-.03.81-.13l-.12-1.92c.5-.38,1.16-.93.94-1.28-.23-.37-.92-.85-1.27-.95l-1.01-.31c-.16-.05.13-.71.28-.61.76.48,2.64,1.43,3.52-.03l-5.37-1.78c-.61-.2-1.29,1-1.19,1.46l1.64.04-1.74.66.8.78c.13.12-.31.67-.46.55l-1.26-1.05-1.5,2.02c-.87-1.01-1.13.19-1.33.8-.14.42.43,1.07.75,1.58l-1.5-1.4c.03.6.23,1.83.66,2.26.46.46,1.53.49,2.45.66-.32.64-.86,1.44-1.08,2.05l-1.36,3.67,1.88-.07-1.56.73c.4.48,1.23.89,2.07.95.49.04.92-.4,1.9-1.12ZM49.23,16.39c-.81-1.45-1.92-2.1-2.88-3.52l2.34,1.83-2.19-2.81,3.02,2.59c-.35-1.27-.69-2.04-1.21-3.26,1.3-.43,2.6,2.47,4.13,3.31-.45-.82-.81-1.32-1.36-2.12,1.75-.16,2.9.64,3.74,2.36l.03-1.63,2.85,1.91c1.46-3.46-2.37-4.34-4.12-5.76l1.73-.49c-.87-1.17-2.13-.61-3.32-.51l-9.59.86c-2.91.26-5.87.35-8.76.08l-6.25-.59c-1.27-.12-2.43-.67-3.8-1.05l-1.46,2.53c.98,1.02,1.65,1.74,2.73,2.71l-2.06-2.9c3.38,3.75,5.6,4.76,8.83,7.67.08-.06.53-.61.61-.43l.34.74c.27-.16.89-.64,1.12-.4l1.14,1.17c-.15-2.83-1-3.16-3.44-5.75-.1-.1.54-.31.45-.42-.06-.09-.05-.07-.72-1.18.79,1.46.29.13.46.22.46.24.45.08-.06-.96,1.58-.2,2.79.53,4.22,1.66l-.74-1.37c2.89.82,5.53,1.78,8.21,3.13.71.36.82,1.62,1.88,1.41l-2.33-2.33c1.76.9,3.19,2.38,3.98,3.84l1.14-.36c-.49-1.2-1.53-2.18-2.87-3l.7-.24c.07-.02,2.51,2.99,3.55,3.04ZM48.59,34.26c.51-1.3.8-2.06,1.57-3.03.36,2.06,1.17,3.57,3.33,3.42-.36-1.18-1.44-1.66-1.61-2.62-.08-.47.56-1.63.28-1.99-.25-.32-.72-.8-1.2-1.3l.89-2.42c-.77,1.33-1.53,2.51-2.42,3.79-3.11,4.44-4.59,1.83-5.35,4.79,1.38.05,2.59-.59,3.23-1.66l1.28,1.02ZM24.32,35.53c.79-.03,1.62-.91,1.82-1.49.26-.77,0-1.84-.58-2.36-1.51-1.4,1.04-1.6-.49-4.42-.2-.37-1.59.05-1.74.45s-.33,1.03-.58,1.85c-.09-.31-.24-.91-.45-.79l-.97.56c-.44.26.27,1.52.74,1.74,1.21.6,3.05.53,2.93,1.1-.24,1.1-.72.67-1.39,2.09-.15.32.35,1.27.72,1.26ZM18.95,33.55c.47-.01,1.17,1.31,1.5,1.47l.26-.96c.64.9.48-.14.52-.47.07-.71-3.47.02-4.41-3.32-.26,1.35-.24,2.44-1.32,3.37-.4-1.26-.48-2.25-.65-3.66l-.26.9c-.05.17-.54.09-.56-.09l-.09-.8-.18-1.59c-.04-.38-1.3-.74-1.38-.36-.19.9.14,2.64.27,3.92-.99-.21-1.6-.87-2.25-1.68l.39,2.84.39-1.3c1.64,1.09,2.44,2.69,2.95,4.64l.48-.68c.09-.12.28-.36.35-.23l.41.72c.43-.28,1.16-.6,1.53-.34l1.55,1.08c-.45-1.02-.71-3.43.53-3.46Z"/><path d="M10.85,9.97c.29.63.44.77.36,1.04-.09.32-.69.58-.96.49l-.8-.26c-.99-.33,1.09-.01-.16-2.99l2.32-1.01c.31,1.19,1.13,2.19,2.11,2.75-.46.72-.73,1.32-1.07,2.22l-1.12-.71c-.25-.16.48-.71.76-1.02l-1.44-.5Z"/><path class="cls-1" d="M55.7,9.95c.32-1.28-.23-1.99-1.57-1.85-3.67.39-7.33.91-11.01,1.25-1.8.16-3.62.04-5.43.02-.43,0-.86-.11-1.29-.13-1.29-.06-2.58-.06-3.86-.16-1.91-.15-3.82-.35-5.72-.57-.58-.07-1.19-.18-1.71-.44-1.01-.49-1.85-.46-2.58.45"/><path class="cls-1" d="M60.71,20.1c1.34,1.23,1.2,3.11,2,4.58"/><path class="cls-1" d="M62.85,24.82c.98,1.97,2.68,3.04,4.72,3.56,1.73.44,3.91-.83,5.14-2.84"/><path class="cls-1" d="M19.1,5.38c-1.91-.67-3.79-1.4-5.73-1.95-.48-.14-1.13.33-1.7.52"/><path class="cls-1" d="M45.41,13.81c1.59.76,2.59,2.09,3.43,3.57"/><path class="cls-1" d="M7.45,17.1c.02.33.05.67.07,1"/><path class="cls-1" d="M16.02,32.26c-.02.52-.05,1.05-.07,1.57"/><path class="cls-1" d="M50.41,31.83c-.51,1.22-.45,2.31.71,3.15"/><path class="cls-1" d="M74.86,18.96c-.86.71-1.73,1.41-2.57,2.15-1.03.9-.98,1.48.14,2.57"/><path class="cls-1" d="M72.57,23.68c1.64-.17.65-1.4.86-2.14"/><path class="cls-1" d="M55.13,13.52c.29.52.57,1.05.86,1.57"/><path class="cls-1" d="M76.15,17.96c-.29.86-.7,1.7-.83,2.58-.18,1.19-.66,2.06-1.75,2.57"/><path class="cls-1" d="M53.99,9.52c2.37.57,4,2.06,5.15,4.15"/><path class="cls-1" d="M11.38,32.11c.19.52.38,1.05.57,1.57"/><path class="cls-1" d="M10.66,29.68c-1.01,1.24.03,2.48.05,3.72,0,.2.71.38,1.09.57"/><path class="cls-1" d="M34.83,17.81c.38.14.76.29,1.14.43"/><path class="cls-1" d="M23.1,10.38c.76.81,1.64,1.54,2.23,2.46.27.42-.04,1.2-.09,1.82"/><path class="cls-1" d="M43.12,13.52c.62.48,1.25.94,1.86,1.43.87.71,1.02,1.52.29,2.43"/><path class="cls-1" d="M15.1,5.52c1.1.62,2.19,1.24,3.29,1.86"/><path class="cls-1" d="M46.84,12.38l2.57,3"/><path class="cls-1" d="M18.24,11.67c-.52.14-1.13.53-1.56.39-1.51-.49-1.58.49-1.73,1.47"/><path class="cls-1" d="M15.1,35.83c.14.76.29,1.53.43,2.29"/><path class="cls-1" d="M46.84,13.24c.98,1.51,2.31,2.45,4.15,2.57"/><path class="cls-1" d="M13.67,5.23c-.33.05-.67.08-1,.15-.38.08-.76.19-1.14.28.29.33.57.67.86,1"/><path class="cls-1" d="M16.24,8.66c.67.24,1.33.48,2,.71"/><path class="cls-1" d="M33.68,12.95c-.67.07-1.33,1.07-2,0"/><path class="cls-1" d="M36.97,35.83c.05.57.1,1.14.14,1.72"/><path class="cls-1" d="M9.23,6.23c.05.62.1,1.24.14,1.86"/><path class="cls-1" d="M7.8,8.81c.43.52.86,1.05,1.29,1.57"/><path class="cls-1" d="M20.81,32.11v1.72"/><path class="cls-1" d="M11.38,9.24c.29.14.63.23.85.44.55.52,1.5,1.03.32,1.88-.02.01.27.45.41.69"/><path class="cls-1" d="M12.38,18.39c.05,1.31-1.31.96-1.86,1.57"/><path class="cls-1" d="M9.95,17.81c-.52.14-1.05.29-1.57.43"/><path class="cls-1" d="M42.98,37.69c-.14.52-.29,1.05-.43,1.57"/><path class="cls-1" d="M11.95,7.52c-.1.24-.19.48-.29.72-.33.83-.78,1.36-1.72.71"/><path class="cls-1" d="M31.39,11.52c.33.33.67.67,1,1"/><path class="cls-1" d="M4.8,7.23c-.38.05-.76.1-1.14.14"/><path class="cls-1" d="M22.67,28.82c.1.33.19.67.29,1"/><path class="cls-1" d="M15.67,10.67c.33.05.67.1,1,.14"/><path class="cls-1" d="M56.85,50.2c-.33.02-.67.05-1,.07"/><path class="cls-1" d="M10.95,11.52l-.43-.86c-.14.24-.29.48-.43.71"/><path class="cls-1" d="M7.52,14.53c-.14-.02-.29-.05-.43-.07"/></svg>